<svg xmlns="http://www.w3.org/2000/svg" viewBox="0 0 200 200" fill="none">
  <defs>
    <linearGradient id="bg" x1="0" y1="0" x2="200" y2="200" gradientUnits="userSpaceOnUse">
      <stop offset="0" stop-color="#1E293B"></stop>
      <stop offset="1" stop-color="#0F172A"></stop>
    </linearGradient>
    <linearGradient id="flake" x1="60" y1="40" x2="140" y2="160" gradientUnits="userSpaceOnUse">
      <stop offset="0" stop-color="#7DD3FC"></stop>
      <stop offset="0.55" stop-color="#38BDF8"></stop>
      <stop offset="1" stop-color="#0EA5E9"></stop>
    </linearGradient>
    <filter id="glow" x="-30%" y="-30%" width="160%" height="160%">
      <feGaussianBlur stdDeviation="2.2" result="b"></feGaussianBlur>
      <feMerge><feMergeNode in="b"></feMergeNode><feMergeNode in="SourceGraphic"></feMergeNode></feMerge>
    </filter>
    <clipPath id="squircle">
      <rect x="0" y="0" width="200" height="200" rx="44" ry="44"></rect>
    </clipPath>
  </defs>

  <g clip-path="url(#squircle)">
    <rect width="200" height="200" fill="url(#bg)"></rect>
    <circle cx="40" cy="30" r="90" fill="#38BDF8" opacity="0.06"></circle>

    <g opacity="0.7" stroke="#7DD3FC" stroke-width="4.5" stroke-linecap="round" fill="none">
      <path d="M 138 64 A 46 46 0 1 0 138 136"></path>
    </g>

    <g filter="url(#glow)" stroke="url(#flake)" stroke-width="6.5" stroke-linecap="round" fill="none">
      <g>
        <line x1="100" y1="40" x2="100" y2="160"></line>
        <polyline points="92,50 100,42 108,50"></polyline>
        <polyline points="92,150 100,158 108,150"></polyline>
        <polyline points="88,72 100,84 112,72"></polyline>
        <polyline points="88,128 100,116 112,128"></polyline>
      </g>
      <g transform="rotate(60 100 100)">
        <line x1="100" y1="40" x2="100" y2="160"></line>
        <polyline points="92,50 100,42 108,50"></polyline>
        <polyline points="92,150 100,158 108,150"></polyline>
        <polyline points="88,72 100,84 112,72"></polyline>
        <polyline points="88,128 100,116 112,128"></polyline>
      </g>
      <g transform="rotate(120 100 100)">
        <line x1="100" y1="40" x2="100" y2="160"></line>
        <polyline points="92,50 100,42 108,50"></polyline>
        <polyline points="92,150 100,158 108,150"></polyline>
        <polyline points="88,72 100,84 112,72"></polyline>
        <polyline points="88,128 100,116 112,128"></polyline>
      </g>
    </g>

    <circle cx="100" cy="100" r="5.5" fill="#E0F2FE"></circle>
  </g>
</svg>